<svg width="28" height="28" viewBox="0 0 28 28" fill="none" xmlns="http://www.w3.org/2000/svg">
<path d="M18.6667 4.66667H21C21.6188 4.66667 22.2123 4.9125 22.6499 5.35009C23.0875 5.78767 23.3333 6.38117 23.3333 7.00001V23.3333C23.3333 23.9522 23.0875 24.5457 22.6499 24.9833C22.2123 25.4208 21.6188 25.6667 21 25.6667H6.99999C6.38115 25.6667 5.78766 25.4208 5.35007 24.9833C4.91249 24.5457 4.66666 23.9522 4.66666 23.3333V7.00001C4.66666 6.38117 4.91249 5.78767 5.35007 5.35009C5.78766 4.9125 6.38115 4.66667 6.99999 4.66667H9.33332" stroke="#EF5DA8" stroke-width="2" stroke-linecap="round" stroke-linejoin="round"/>
<path d="M17.5 2.33333H10.5C9.85568 2.33333 9.33334 2.85566 9.33334 3.49999V5.83333C9.33334 6.47766 9.85568 6.99999 10.5 6.99999H17.5C18.1443 6.99999 18.6667 6.47766 18.6667 5.83333V3.49999C18.6667 2.85566 18.1443 2.33333 17.5 2.33333Z" stroke="#EF5DA8" stroke-width="2" stroke-linecap="round" stroke-linejoin="round"/>
<path d="M18 19.5V18.5C18 17.9696 17.7893 17.4609 17.4142 17.0858C17.0391 16.7107 16.5304 16.5 16 16.5H12C11.4696 16.5 10.9609 16.7107 10.5858 17.0858C10.2107 17.4609 10 17.9696 10 18.5V19.5" stroke="#EF5DA8" stroke-width="1.6" stroke-linecap="round" stroke-linejoin="round"/>
<path d="M14 14.5C15.1046 14.5 16 13.6046 16 12.5C16 11.3954 15.1046 10.5 14 10.5C12.8954 10.5 12 11.3954 12 12.5C12 13.6046 12.8954 14.5 14 14.5Z" stroke="#EF5DA8" stroke-width="1.6" stroke-linecap="round" stroke-linejoin="round"/>
</svg>
